# xmcd
#
# Track frame offsets:
#	182
#	12307
#	27145
#	41222
#	58465
#	70022
#	80235
#	93360
#	106912
#	122892
#	138205
#	152775
#	164037
#	177432
#
# Disc length: 2591 seconds
#
# Revision: 0
# Processed by: cddbd v1.4PL0 Copyright (c) Steve Scherf et al.
# Submitted via: EasyCDDAExtractor 4.5.0.2
#
DISCID=c50a1d0e
DTITLE=MAMAS and PAPAS - GREATEST HITS (Japan Release)
DYEAR=1989
DGENRE=Pop
TTITLE0=CALIFORNIA DREAMIN'
TTITLE1=SPANISH HARLEM
TTITLE2=LOOK THROUGH MY WINDOW
TTITLE3=DEDICATED IN THE STREET
TTITLE4=I CALL YOUR NAME
TTITLE5=WORDS OF LOVE
TTITLE6=TWIST AND SHOUT
TTITLE7=DEDICATED TO THE ONE I LOVE
TTITLE8=MY GIRL
TTITLE9=MONDAY MONDAY
TTITLE10=I SAW HER AGAIN
TTITLE11=GO WHERE YOU WANNA GO
TTITLE12=DO YOU WANNA DANCE
TTITLE13=CREEQUE ALLEY
EXTD=
EXTT0=
EXTT1=
EXTT2=
EXTT3=
EXTT4=
EXTT5=
EXTT6=
EXTT7=
EXTT8=
EXTT9=
EXTT10=
EXTT11=
EXTT12=
EXTT13=
PLAYORDER=
